<svg width="312" height="262" viewBox="0 0 312 262" fill="none" xmlns="http://www.w3.org/2000/svg">
<path d="M6.48803 262V84.4596H57.968V262H6.48803ZM32.228 59.7096C22.768 59.7096 15.068 56.9596 9.12803 51.4596C3.18803 45.9596 0.218028 39.1396 0.218028 30.9996C0.218028 22.8596 3.18803 16.0396 9.12803 10.5396C15.068 5.0396 22.768 2.2896 32.228 2.2896C41.688 2.2896 49.388 4.9296 55.328 10.2096C61.268 15.2696 64.238 21.8696 64.238 30.0096C64.238 38.5896 61.268 45.7396 55.328 51.4596C49.608 56.9596 41.908 59.7096 32.228 59.7096Z" fill="#2F2F2F"/>
<path d="M79.9448 262V0.899601H192.964C216.339 0.899601 236.481 4.75394 253.39 12.4626C270.299 19.9226 283.354 30.7396 292.555 44.9136C301.756 59.0876 306.356 75.9969 306.356 95.6416C306.356 115.038 301.756 131.823 292.555 145.997C283.354 159.922 270.299 170.615 253.39 178.075C236.481 185.535 216.339 189.265 192.964 189.265H113.515L140.371 162.782V262H79.9448ZM245.93 262L180.655 167.258H245.184L311.205 262H245.93ZM140.371 169.496L113.515 141.148H189.607C208.257 141.148 222.182 137.169 231.383 129.212C240.584 121.006 245.184 109.816 245.184 95.6416C245.184 81.2189 240.584 70.0289 231.383 62.0716C222.182 54.1143 208.257 50.1356 189.607 50.1356H113.515L140.371 21.4146V169.496Z" fill="#0060D1"/>
</svg>
