<svg xmlns="http://www.w3.org/2000/svg" xmlns:xlink="http://www.w3.org/1999/xlink" width="2500" zoomAndPan="magnify" viewBox="0 0 1874.88 1874.999927" height="2500" preserveAspectRatio="xMidYMid meet" version="1.0"><defs><g/><clipPath id="7333401222"><path d="M 151.414062 187.546875 L 1650.097656 187.546875 L 1650.097656 1686.230469 L 151.414062 1686.230469 Z M 151.414062 187.546875 " clip-rule="nonzero"/></clipPath><clipPath id="89c671f997"><path d="M 900.753906 187.546875 C 486.90625 187.546875 151.414062 523.039062 151.414062 936.886719 C 151.414062 1350.738281 486.90625 1686.230469 900.753906 1686.230469 C 1314.605469 1686.230469 1650.097656 1350.738281 1650.097656 936.886719 C 1650.097656 523.039062 1314.605469 187.546875 900.753906 187.546875 " clip-rule="nonzero"/></clipPath><clipPath id="5f4197827a"><path d="M 57.449219 57.511719 L 1817.585938 57.511719 L 1817.585938 1817.648438 L 57.449219 1817.648438 Z M 57.449219 57.511719 " clip-rule="nonzero"/></clipPath></defs><g clip-path="url(#7333401222)"><g clip-path="url(#89c671f997)"><path fill="#1e1e1e" d="M 151.414062 187.546875 L 1650.097656 187.546875 L 1650.097656 1686.230469 L 151.414062 1686.230469 Z M 151.414062 187.546875 " fill-opacity="1" fill-rule="nonzero"/></g></g><g clip-path="url(#5f4197827a)"><path fill="#9f2424" d="M 937.519531 57.511719 C 451.28125 57.511719 57.449219 451.339844 57.449219 937.578125 C 57.449219 1423.816406 451.28125 1817.648438 937.519531 1817.648438 C 1423.757812 1817.648438 1817.585938 1423.816406 1817.585938 937.578125 C 1817.585938 451.339844 1423.757812 57.511719 937.519531 57.511719 Z M 937.519531 1641.632812 C 548.527344 1641.632812 233.464844 1326.570312 233.464844 937.578125 C 233.464844 548.589844 548.527344 233.523438 937.519531 233.523438 C 1326.507812 233.523438 1641.574219 548.589844 1641.574219 937.578125 C 1641.574219 1326.570312 1326.507812 1641.632812 937.519531 1641.632812 Z M 937.519531 1641.632812 " fill-opacity="1" fill-rule="nonzero"/></g><g fill="#ffffff" fill-opacity="1"><g transform="translate(589.717308, 1472.8172)"><g><path d="M 513.152344 6.128906 L 574.425781 3.0625 L 601.996094 -12.253906 L 617.316406 -41.359375 L 617.316406 -193.007812 L 598.933594 -222.109375 L 565.234375 -238.960938 L 533.066406 -238.960938 L 496.304688 -251.214844 L 477.921875 -286.445312 L 482.515625 -315.550781 L 480.984375 -484.050781 L 484.050781 -517.75 L 477.921875 -628.039062 L 484.050781 -782.75 L 494.773438 -817.980469 L 528.472656 -831.769531 L 559.105469 -836.363281 L 591.273438 -848.617188 L 606.59375 -873.125 L 608.125 -1024.773438 L 589.742188 -1053.878906 L 562.171875 -1070.730469 L 376.824219 -1070.730469 L 349.25 -1073.792969 L 318.613281 -1067.664062 L 193.007812 -1067.664062 L 163.902344 -1072.261719 L 128.671875 -1072.261719 L 98.035156 -1056.941406 L 82.71875 -1020.179688 L 87.3125 -906.824219 L 84.25 -877.722656 L 101.097656 -847.085938 L 134.796875 -830.234375 L 165.433594 -830.234375 L 194.539062 -811.855469 L 208.324219 -770.496094 L 212.921875 -300.234375 L 196.070312 -254.277344 L 94.972656 -223.644531 L 78.121094 -196.070312 L 73.527344 -55.144531 L 88.84375 -13.785156 L 119.480469 0 L 148.585938 0 L 177.6875 -3.0625 L 222.109375 3.0625 L 269.597656 1.53125 L 300.234375 -1.53125 L 361.503906 4.59375 L 407.457031 -1.53125 L 482.515625 -1.53125 Z M 513.152344 6.128906 "/></g></g></g></svg>