<svg xmlns="http://www.w3.org/2000/svg" xmlns:xlink="http://www.w3.org/1999/xlink" width="2500" zoomAndPan="magnify" viewBox="0 0 1874.88 1874.999927" height="2500" preserveAspectRatio="xMidYMid meet" version="1.0"><defs><clipPath id="d27299cf00"><path d="M 195.679688 195.738281 L 1687.335938 195.738281 L 1687.335938 1687.394531 L 195.679688 1687.394531 Z M 195.679688 195.738281 " clip-rule="nonzero"/></clipPath><clipPath id="8958544cfd"><path d="M 53.042969 53.101562 L 1822.179688 53.101562 L 1822.179688 1822.238281 L 53.042969 1822.238281 Z M 53.042969 53.101562 " clip-rule="nonzero"/></clipPath><clipPath id="3d1d78b0b0"><path d="M 401 374 L 1473 374 L 1473 1474 L 401 1474 Z M 401 374 " clip-rule="nonzero"/></clipPath><clipPath id="9e84d7ed24"><path d="M 671.835938 1687.445312 L 182.542969 811.386719 L 1184.3125 251.882812 L 1673.605469 1127.9375 Z M 671.835938 1687.445312 " clip-rule="nonzero"/></clipPath><clipPath id="64e096b08c"><path d="M 671.835938 1687.445312 L 182.542969 811.386719 L 1184.3125 251.882812 L 1673.605469 1127.9375 Z M 671.835938 1687.445312 " clip-rule="nonzero"/></clipPath><clipPath id="c0416bd0b3"><path d="M 671.835938 1687.445312 L 182.542969 811.386719 L 1184.3125 251.882812 L 1673.605469 1127.9375 Z M 671.835938 1687.445312 " clip-rule="nonzero"/></clipPath></defs><g clip-path="url(#d27299cf00)"><path fill="#1e1e1e" d="M 1687.335938 941.566406 C 1687.335938 953.773438 1687.035156 965.972656 1686.4375 978.164062 C 1685.835938 990.355469 1684.941406 1002.523438 1683.742188 1014.671875 C 1682.546875 1026.820312 1681.054688 1038.929688 1679.261719 1051.003906 C 1677.472656 1063.078125 1675.382812 1075.097656 1673.003906 1087.070312 C 1670.621094 1099.042969 1667.949219 1110.949219 1664.984375 1122.789062 C 1662.015625 1134.628906 1658.761719 1146.390625 1655.21875 1158.070312 C 1651.675781 1169.75 1647.847656 1181.335938 1643.734375 1192.828125 C 1639.625 1204.320312 1635.234375 1215.707031 1630.5625 1226.984375 C 1625.890625 1238.261719 1620.945312 1249.414062 1615.726562 1260.449219 C 1610.507812 1271.484375 1605.023438 1282.382812 1599.269531 1293.148438 C 1593.515625 1303.914062 1587.5 1314.53125 1581.222656 1325 C 1574.949219 1335.46875 1568.421875 1345.777344 1561.640625 1355.925781 C 1554.859375 1366.074219 1547.832031 1376.050781 1540.5625 1385.855469 C 1533.289062 1395.660156 1525.78125 1405.28125 1518.039062 1414.714844 C 1510.296875 1424.152344 1502.324219 1433.390625 1494.128906 1442.433594 C 1485.933594 1451.476562 1477.519531 1460.316406 1468.886719 1468.945312 C 1460.257812 1477.578125 1451.417969 1485.992188 1442.375 1494.1875 C 1433.332031 1502.386719 1424.089844 1510.355469 1414.65625 1518.097656 C 1405.21875 1525.84375 1395.601562 1533.351562 1385.796875 1540.621094 C 1375.992188 1547.890625 1366.015625 1554.917969 1355.867188 1561.699219 C 1345.71875 1568.480469 1335.410156 1575.007812 1324.9375 1581.285156 C 1314.46875 1587.558594 1303.851562 1593.574219 1293.085938 1599.328125 C 1282.324219 1605.082031 1271.421875 1610.566406 1260.390625 1615.785156 C 1249.355469 1621.003906 1238.199219 1625.949219 1226.921875 1630.621094 C 1215.644531 1635.292969 1204.261719 1639.683594 1192.769531 1643.796875 C 1181.277344 1647.910156 1169.691406 1651.734375 1158.007812 1655.28125 C 1146.328125 1658.824219 1134.570312 1662.078125 1122.726562 1665.042969 C 1110.886719 1668.007812 1098.984375 1670.683594 1087.011719 1673.0625 C 1075.039062 1675.445312 1063.015625 1677.53125 1050.941406 1679.320312 C 1038.867188 1681.113281 1026.757812 1682.605469 1014.609375 1683.804688 C 1002.464844 1685 990.292969 1685.898438 978.101562 1686.496094 C 965.910156 1687.09375 953.714844 1687.394531 941.507812 1687.394531 C 929.300781 1687.394531 917.101562 1687.09375 904.910156 1686.496094 C 892.71875 1685.898438 880.550781 1685 868.402344 1683.804688 C 856.257812 1682.605469 844.144531 1681.113281 832.070312 1679.320312 C 819.996094 1677.53125 807.976562 1675.445312 796.003906 1673.0625 C 784.03125 1670.683594 772.125 1668.007812 760.285156 1665.042969 C 748.445312 1662.078125 736.683594 1658.824219 725.003906 1655.28125 C 713.324219 1651.734375 701.738281 1647.910156 690.246094 1643.796875 C 678.753906 1639.683594 667.367188 1635.292969 656.089844 1630.621094 C 644.816406 1625.949219 633.660156 1621.003906 622.625 1615.785156 C 611.589844 1610.566406 600.691406 1605.082031 589.925781 1599.328125 C 579.160156 1593.574219 568.542969 1587.558594 558.074219 1581.285156 C 547.605469 1575.007812 537.296875 1568.480469 527.148438 1561.699219 C 517 1554.917969 507.023438 1547.890625 497.21875 1540.621094 C 487.414062 1533.351562 477.792969 1525.84375 468.359375 1518.097656 C 458.925781 1510.355469 449.683594 1502.386719 440.640625 1494.1875 C 431.597656 1485.992188 422.757812 1477.578125 414.128906 1468.945312 C 405.496094 1460.316406 397.082031 1451.476562 388.886719 1442.433594 C 380.6875 1433.390625 372.71875 1424.152344 364.976562 1414.714844 C 357.230469 1405.28125 349.722656 1395.660156 342.453125 1385.855469 C 335.183594 1376.050781 328.15625 1366.074219 321.375 1355.925781 C 314.59375 1345.777344 308.066406 1335.46875 301.789062 1325 C 295.515625 1314.53125 289.5 1303.914062 283.746094 1293.148438 C 277.992188 1282.382812 272.507812 1271.484375 267.289062 1260.449219 C 262.070312 1249.414062 257.125 1238.261719 252.453125 1226.984375 C 247.78125 1215.707031 243.390625 1204.320312 239.277344 1192.828125 C 235.167969 1181.335938 231.339844 1169.75 227.796875 1158.070312 C 224.25 1146.390625 220.996094 1134.628906 218.03125 1122.789062 C 215.066406 1110.949219 212.390625 1099.042969 210.011719 1087.070312 C 207.628906 1075.097656 205.542969 1063.078125 203.753906 1051.003906 C 201.960938 1038.929688 200.46875 1026.820312 199.269531 1014.671875 C 198.074219 1002.523438 197.175781 990.355469 196.578125 978.164062 C 195.980469 965.972656 195.679688 953.773438 195.679688 941.566406 C 195.679688 929.359375 195.980469 917.164062 196.578125 904.972656 C 197.175781 892.78125 198.074219 880.609375 199.269531 868.464844 C 200.46875 856.316406 201.960938 844.207031 203.753906 832.132812 C 205.542969 820.058594 207.628906 808.035156 210.011719 796.0625 C 212.390625 784.09375 215.066406 772.1875 218.03125 760.347656 C 220.996094 748.503906 224.25 736.746094 227.796875 725.066406 C 231.339844 713.382812 235.167969 701.796875 239.277344 690.304688 C 243.390625 678.8125 247.78125 667.429688 252.453125 656.152344 C 257.125 644.875 262.070312 633.71875 267.289062 622.683594 C 272.507812 611.652344 277.992188 600.75 283.746094 589.988281 C 289.5 579.222656 295.515625 568.605469 301.789062 558.136719 C 308.066406 547.664062 314.59375 537.355469 321.375 527.207031 C 328.15625 517.058594 335.183594 507.082031 342.453125 497.277344 C 349.722656 487.472656 357.230469 477.855469 364.976562 468.417969 C 372.71875 458.984375 380.6875 449.746094 388.886719 440.699219 C 397.082031 431.65625 405.496094 422.820312 414.128906 414.1875 C 422.757812 405.558594 431.597656 397.144531 440.640625 388.945312 C 449.683594 380.75 458.925781 372.777344 468.359375 365.035156 C 477.792969 357.292969 487.414062 349.785156 497.21875 342.511719 C 507.023438 335.242188 517 328.214844 527.148438 321.433594 C 537.296875 314.652344 547.605469 308.125 558.074219 301.851562 C 568.542969 295.574219 579.160156 289.558594 589.925781 283.804688 C 600.691406 278.050781 611.589844 272.566406 622.625 267.347656 C 633.660156 262.128906 644.816406 257.183594 656.089844 252.511719 C 667.367188 247.839844 678.753906 243.449219 690.246094 239.339844 C 701.738281 235.226562 713.324219 231.398438 725.003906 227.855469 C 736.683594 224.3125 748.445312 221.058594 760.285156 218.089844 C 772.125 215.125 784.03125 212.453125 796.003906 210.070312 C 807.976562 207.691406 819.996094 205.605469 832.070312 203.8125 C 844.144531 202.023438 856.257812 200.527344 868.402344 199.332031 C 880.550781 198.136719 892.71875 197.238281 904.910156 196.636719 C 917.101562 196.039062 929.300781 195.738281 941.507812 195.738281 C 953.714844 195.738281 965.910156 196.039062 978.101562 196.636719 C 990.292969 197.238281 1002.464844 198.136719 1014.609375 199.332031 C 1026.757812 200.527344 1038.867188 202.023438 1050.941406 203.8125 C 1063.015625 205.605469 1075.039062 207.691406 1087.011719 210.070312 C 1098.984375 212.453125 1110.886719 215.125 1122.726562 218.089844 C 1134.570312 221.058594 1146.328125 224.3125 1158.007812 227.855469 C 1169.691406 231.398438 1181.277344 235.226562 1192.769531 239.339844 C 1204.261719 243.449219 1215.644531 247.839844 1226.921875 252.511719 C 1238.199219 257.183594 1249.355469 262.128906 1260.390625 267.347656 C 1271.425781 272.566406 1282.324219 278.050781 1293.089844 283.804688 C 1303.851562 289.558594 1314.46875 295.574219 1324.9375 301.851562 C 1335.410156 308.125 1345.71875 314.652344 1355.867188 321.433594 C 1366.015625 328.214844 1375.992188 335.242188 1385.796875 342.511719 C 1395.601562 349.785156 1405.21875 357.292969 1414.65625 365.035156 C 1424.089844 372.777344 1433.332031 380.75 1442.375 388.945312 C 1451.417969 397.144531 1460.257812 405.558594 1468.886719 414.1875 C 1477.519531 422.820312 1485.933594 431.65625 1494.128906 440.699219 C 1502.324219 449.746094 1510.296875 458.984375 1518.039062 468.417969 C 1525.78125 477.855469 1533.289062 487.472656 1540.5625 497.277344 C 1547.832031 507.082031 1554.859375 517.058594 1561.640625 527.207031 C 1568.421875 537.355469 1574.949219 547.664062 1581.222656 558.136719 C 1587.5 568.605469 1593.515625 579.222656 1599.269531 589.988281 C 1605.023438 600.75 1610.507812 611.652344 1615.726562 622.683594 C 1620.945312 633.71875 1625.890625 644.875 1630.5625 656.152344 C 1635.234375 667.429688 1639.625 678.8125 1643.734375 690.304688 C 1647.847656 701.796875 1651.675781 713.382812 1655.21875 725.066406 C 1658.761719 736.746094 1662.015625 748.503906 1664.984375 760.347656 C 1667.949219 772.1875 1670.621094 784.09375 1673.003906 796.0625 C 1675.386719 808.035156 1677.472656 820.058594 1679.261719 832.132812 C 1681.054688 844.207031 1682.546875 856.316406 1683.742188 868.464844 C 1684.941406 880.609375 1685.835938 892.78125 1686.4375 904.972656 C 1687.035156 917.164062 1687.335938 929.359375 1687.335938 941.566406 Z M 1687.335938 941.566406 " fill-opacity="1" fill-rule="nonzero"/></g><g clip-path="url(#8958544cfd)"><path fill="#00a1ff" d="M 937.609375 53.101562 C 448.886719 53.101562 53.042969 448.945312 53.042969 937.671875 C 53.042969 1426.394531 448.886719 1822.238281 937.609375 1822.238281 C 1426.335938 1822.238281 1822.179688 1426.394531 1822.179688 937.671875 C 1822.179688 448.945312 1426.335938 53.101562 937.609375 53.101562 Z M 937.609375 1645.324219 C 546.632812 1645.324219 229.957031 1328.652344 229.957031 937.671875 C 229.957031 546.691406 546.632812 230.015625 937.609375 230.015625 C 1328.589844 230.015625 1645.265625 546.691406 1645.265625 937.671875 C 1645.265625 1328.652344 1328.589844 1645.324219 937.609375 1645.324219 Z M 937.609375 1645.324219 " fill-opacity="1" fill-rule="nonzero"/></g><g clip-path="url(#3d1d78b0b0)"><g clip-path="url(#9e84d7ed24)"><g clip-path="url(#64e096b08c)"><g clip-path="url(#c0416bd0b3)"><path fill="#00a1ff" d="M 401.929688 1193.394531 C 441.21875 1205.53125 473.1875 1225.691406 507.859375 1239.882812 C 546.910156 1255.824219 587.585938 1262.464844 628.964844 1264.261719 C 682.96875 1266.605469 735.070312 1251.925781 786.257812 1237.492188 C 843.3125 1221.355469 898.328125 1198.753906 948.613281 1166.738281 C 980.46875 1146.324219 1013.015625 1125.265625 1037.203125 1096.285156 C 1063.035156 1065.082031 1080.378906 1027.605469 1099.328125 991.59375 C 1132.425781 928.804688 1135.742188 862.457031 1131.699219 794.195312 C 1128.160156 732.46875 1115.398438 673.007812 1097.039062 614.316406 C 1076.640625 549.15625 1041.964844 492.238281 997.808594 440.871094 C 986.550781 427.761719 974.808594 415.179688 963.265625 402.492188 C 957.535156 395.992188 955.941406 387.96875 960.523438 380.691406 C 964.160156 374.988281 970.199219 372.664062 978.097656 375.070312 C 1035.738281 391.898438 1094.722656 404.570312 1149.648438 429.210938 C 1238.660156 468.890625 1315.683594 524.179688 1373.355469 604.4375 C 1408.703125 653.640625 1436.320312 706.378906 1456.945312 763.019531 C 1465.601562 786.5 1464.015625 812.289062 1468.117188 837 C 1479.996094 910.847656 1468.109375 982.503906 1453.6875 1054.785156 C 1434.273438 1152.402344 1384.964844 1232.636719 1316.761719 1302.972656 C 1270.183594 1351.011719 1213.523438 1384.753906 1154.765625 1415.210938 C 1050.464844 1469.269531 938.402344 1481.261719 823.949219 1470.207031 C 728.132812 1461.066406 638.070312 1429.839844 558.46875 1374.152344 C 505.628906 1336.816406 460.195312 1291.144531 425.167969 1235.46875 C 417.089844 1222.417969 405.929688 1211.347656 401.929688 1193.394531 Z M 401.929688 1193.394531 " fill-opacity="1" fill-rule="nonzero"/></g></g></g></g></svg>