<svg xmlns="http://www.w3.org/2000/svg" xmlns:xlink="http://www.w3.org/1999/xlink" width="2500" zoomAndPan="magnify" viewBox="0 0 1874.88 1874.999927" height="2500" preserveAspectRatio="xMidYMid meet" version="1.0"><defs><clipPath id="bef92356f3"><path d="M 404.578125 404.640625 L 1470.261719 404.640625 L 1470.261719 1470.320312 L 404.578125 1470.320312 Z M 404.578125 404.640625 " clip-rule="nonzero"/></clipPath><clipPath id="d5b92ba428"><path d="M 93.742188 93.804688 L 1781.136719 93.804688 L 1781.136719 1781.195312 L 93.742188 1781.195312 Z M 93.742188 93.804688 " clip-rule="nonzero"/></clipPath></defs><path fill="#ffffff" d="M 411.683594 411.742188 L 1463.15625 411.742188 L 1463.15625 1463.214844 L 411.683594 1463.214844 Z M 411.683594 411.742188 " fill-opacity="1" fill-rule="nonzero"/><g clip-path="url(#bef92356f3)"><path fill="#ffffff" d="M 1463.15625 1470.320312 L 411.683594 1470.320312 C 407.707031 1470.320312 404.578125 1467.195312 404.578125 1463.214844 L 404.578125 411.742188 C 404.578125 407.765625 407.707031 404.640625 411.683594 404.640625 L 1463.15625 404.640625 C 1467.136719 404.640625 1470.261719 407.765625 1470.261719 411.742188 L 1470.261719 1463.214844 C 1470.261719 1467.195312 1467.136719 1470.320312 1463.15625 1470.320312 Z M 418.789062 1456.113281 L 1456.050781 1456.113281 L 1456.050781 418.847656 L 418.789062 418.847656 Z M 418.789062 1456.113281 " fill-opacity="1" fill-rule="nonzero"/></g><path fill="#000000" d="M 1186.46875 885.28125 C 1186.46875 890.214844 1186.347656 895.140625 1186.105469 900.066406 C 1185.863281 904.988281 1185.5 909.902344 1185.019531 914.808594 C 1184.535156 919.714844 1183.929688 924.609375 1183.207031 929.484375 C 1182.484375 934.363281 1181.640625 939.21875 1180.679688 944.054688 C 1179.71875 948.886719 1178.636719 953.699219 1177.441406 958.480469 C 1176.242188 963.261719 1174.929688 968.011719 1173.496094 972.730469 C 1172.066406 977.449219 1170.519531 982.128906 1168.859375 986.769531 C 1167.199219 991.410156 1165.425781 996.011719 1163.539062 1000.566406 C 1161.652344 1005.121094 1159.652344 1009.625 1157.546875 1014.082031 C 1155.4375 1018.539062 1153.222656 1022.941406 1150.898438 1027.289062 C 1148.574219 1031.636719 1146.144531 1035.925781 1143.609375 1040.152344 C 1141.074219 1044.382812 1138.4375 1048.546875 1135.699219 1052.644531 C 1132.960938 1056.746094 1130.121094 1060.773438 1127.1875 1064.734375 C 1124.25 1068.695312 1121.214844 1072.578125 1118.089844 1076.390625 C 1114.960938 1080.203125 1111.742188 1083.933594 1108.429688 1087.585938 C 1105.121094 1091.238281 1101.722656 1094.808594 1098.234375 1098.296875 C 1094.75 1101.78125 1091.179688 1105.179688 1087.527344 1108.492188 C 1083.875 1111.800781 1080.140625 1115.019531 1076.332031 1118.148438 C 1072.519531 1121.277344 1068.632812 1124.308594 1064.675781 1127.246094 C 1060.714844 1130.183594 1056.683594 1133.019531 1052.585938 1135.757812 C 1048.488281 1138.5 1044.324219 1141.136719 1040.09375 1143.667969 C 1035.867188 1146.203125 1031.578125 1148.632812 1027.230469 1150.957031 C 1022.882812 1153.28125 1018.480469 1155.496094 1014.023438 1157.605469 C 1009.566406 1159.714844 1005.058594 1161.710938 1000.503906 1163.597656 C 995.949219 1165.484375 991.351562 1167.257812 986.710938 1168.917969 C 982.066406 1170.578125 977.386719 1172.125 972.671875 1173.558594 C 967.953125 1174.988281 963.203125 1176.300781 958.417969 1177.5 C 953.636719 1178.699219 948.828125 1179.777344 943.992188 1180.738281 C 939.15625 1181.703125 934.300781 1182.542969 929.425781 1183.269531 C 924.546875 1183.992188 919.65625 1184.59375 914.75 1185.078125 C 909.84375 1185.5625 904.929688 1185.925781 900.003906 1186.164062 C 895.082031 1186.40625 890.152344 1186.527344 885.222656 1186.527344 C 880.292969 1186.527344 875.367188 1186.40625 870.441406 1186.164062 C 865.515625 1185.925781 860.601562 1185.5625 855.695312 1185.078125 C 850.789062 1184.59375 845.898438 1183.992188 841.019531 1183.269531 C 836.144531 1182.542969 831.289062 1181.703125 826.453125 1180.738281 C 821.617188 1179.777344 816.808594 1178.699219 812.027344 1177.5 C 807.242188 1176.300781 802.492188 1174.988281 797.777344 1173.558594 C 793.058594 1172.125 788.378906 1170.578125 783.738281 1168.917969 C 779.09375 1167.257812 774.496094 1165.484375 769.941406 1163.597656 C 765.386719 1161.710938 760.878906 1159.714844 756.425781 1157.605469 C 751.96875 1155.496094 747.566406 1153.28125 743.21875 1150.957031 C 738.867188 1148.632812 734.582031 1146.203125 730.351562 1143.667969 C 726.125 1141.136719 721.960938 1138.5 717.859375 1135.757812 C 713.761719 1133.019531 709.730469 1130.183594 705.769531 1127.246094 C 701.8125 1124.308594 697.925781 1121.277344 694.113281 1118.148438 C 690.304688 1115.019531 686.570312 1111.800781 682.917969 1108.492188 C 679.265625 1105.179688 675.695312 1101.78125 672.210938 1098.296875 C 668.722656 1094.808594 665.324219 1091.238281 662.015625 1087.585938 C 658.703125 1083.933594 655.484375 1080.203125 652.355469 1076.390625 C 649.230469 1072.578125 646.195312 1068.695312 643.261719 1064.734375 C 640.324219 1060.773438 637.484375 1056.746094 634.746094 1052.644531 C 632.007812 1048.546875 629.371094 1044.382812 626.835938 1040.152344 C 624.300781 1035.925781 621.871094 1031.636719 619.546875 1027.289062 C 617.222656 1022.941406 615.007812 1018.539062 612.898438 1014.082031 C 610.792969 1009.625 608.796875 1005.121094 606.910156 1000.566406 C 605.023438 996.011719 603.246094 991.410156 601.585938 986.769531 C 599.925781 982.128906 598.378906 977.449219 596.949219 972.730469 C 595.519531 968.011719 594.203125 963.261719 593.003906 958.480469 C 591.808594 953.699219 590.726562 948.886719 589.765625 944.054688 C 588.804688 939.21875 587.960938 934.363281 587.238281 929.484375 C 586.515625 924.609375 585.910156 919.714844 585.429688 914.808594 C 584.945312 909.902344 584.582031 904.988281 584.339844 900.066406 C 584.097656 895.140625 583.976562 890.214844 583.976562 885.28125 C 583.976562 880.351562 584.097656 875.425781 584.339844 870.5 C 584.582031 865.578125 584.945312 860.664062 585.429688 855.757812 C 585.910156 850.847656 586.515625 845.957031 587.238281 841.082031 C 587.960938 836.203125 588.804688 831.347656 589.765625 826.511719 C 590.726562 821.675781 591.808594 816.867188 593.003906 812.085938 C 594.203125 807.304688 595.519531 802.554688 596.949219 797.835938 C 598.378906 793.117188 599.925781 788.4375 601.585938 783.796875 C 603.246094 779.15625 605.023438 774.554688 606.910156 770 C 608.796875 765.445312 610.792969 760.941406 612.898438 756.484375 C 615.007812 752.027344 617.222656 747.625 619.546875 743.277344 C 621.871094 738.929688 624.300781 734.640625 626.835938 730.410156 C 629.371094 726.183594 632.007812 722.019531 634.746094 717.921875 C 637.484375 713.820312 640.324219 709.792969 643.261719 705.832031 C 646.195312 701.871094 649.230469 697.984375 652.355469 694.175781 C 655.484375 690.363281 658.703125 686.632812 662.015625 682.980469 C 665.324219 679.324219 668.722656 675.757812 672.210938 672.269531 C 675.695312 668.785156 679.265625 665.386719 682.917969 662.074219 C 686.570312 658.765625 690.304688 655.542969 694.113281 652.417969 C 697.925781 649.289062 701.8125 646.257812 705.769531 643.320312 C 709.730469 640.382812 713.761719 637.546875 717.859375 634.804688 C 721.960938 632.066406 726.125 629.429688 730.351562 626.894531 C 734.582031 624.363281 738.867188 621.933594 743.21875 619.609375 C 747.566406 617.285156 751.96875 615.066406 756.425781 612.960938 C 760.878906 610.851562 765.386719 608.855469 769.941406 606.96875 C 774.496094 605.082031 779.09375 603.308594 783.738281 601.648438 C 788.378906 599.984375 793.058594 598.441406 797.777344 597.007812 C 802.492188 595.578125 807.242188 594.261719 812.027344 593.066406 C 816.808594 591.867188 821.617188 590.789062 826.453125 589.824219 C 831.289062 588.863281 836.144531 588.019531 841.019531 587.296875 C 845.898438 586.574219 850.789062 585.972656 855.695312 585.488281 C 860.601562 585.003906 865.515625 584.640625 870.441406 584.398438 C 875.367188 584.160156 880.292969 584.039062 885.222656 584.039062 C 890.152344 584.039062 895.082031 584.160156 900.003906 584.398438 C 904.929688 584.640625 909.84375 585.003906 914.75 585.488281 C 919.65625 585.972656 924.546875 586.574219 929.425781 587.296875 C 934.300781 588.019531 939.15625 588.863281 943.992188 589.824219 C 948.828125 590.789062 953.636719 591.867188 958.417969 593.066406 C 963.203125 594.261719 967.953125 595.578125 972.671875 597.007812 C 977.386719 598.441406 982.066406 599.984375 986.710938 601.648438 C 991.351562 603.308594 995.949219 605.082031 1000.503906 606.96875 C 1005.058594 608.855469 1009.566406 610.851562 1014.023438 612.960938 C 1018.480469 615.066406 1022.882812 617.285156 1027.230469 619.609375 C 1031.578125 621.933594 1035.867188 624.363281 1040.09375 626.894531 C 1044.324219 629.429688 1048.488281 632.066406 1052.585938 634.804688 C 1056.683594 637.546875 1060.714844 640.382812 1064.675781 643.320312 C 1068.632812 646.257812 1072.519531 649.289062 1076.332031 652.417969 C 1080.140625 655.542969 1083.875 658.765625 1087.527344 662.074219 C 1091.179688 665.386719 1094.75 668.785156 1098.234375 672.269531 C 1101.722656 675.757812 1105.121094 679.324219 1108.429688 682.980469 C 1111.742188 686.632812 1114.960938 690.363281 1118.089844 694.175781 C 1121.214844 697.984375 1124.25 701.871094 1127.1875 705.832031 C 1130.121094 709.792969 1132.960938 713.820312 1135.699219 717.917969 C 1138.4375 722.019531 1141.074219 726.183594 1143.609375 730.410156 C 1146.144531 734.640625 1148.574219 738.929688 1150.898438 743.277344 C 1153.222656 747.625 1155.4375 752.027344 1157.546875 756.484375 C 1159.652344 760.941406 1161.652344 765.445312 1163.539062 770 C 1165.425781 774.554688 1167.199219 779.15625 1168.859375 783.796875 C 1170.519531 788.4375 1172.066406 793.117188 1173.496094 797.835938 C 1174.929688 802.554688 1176.242188 807.304688 1177.441406 812.085938 C 1178.636719 816.867188 1179.71875 821.675781 1180.679688 826.511719 C 1181.640625 831.347656 1182.484375 836.203125 1183.207031 841.082031 C 1183.929688 845.957031 1184.535156 850.847656 1185.019531 855.757812 C 1185.5 860.664062 1185.863281 865.578125 1186.105469 870.5 C 1186.347656 875.425781 1186.46875 880.351562 1186.46875 885.28125 Z M 1186.46875 885.28125 " fill-opacity="1" fill-rule="nonzero"/><g clip-path="url(#d5b92ba428)"><path fill="#000000" d="M 937.441406 93.804688 C 471.480469 93.804688 93.742188 471.539062 93.742188 937.5 C 93.742188 1403.460938 471.480469 1781.195312 937.441406 1781.195312 C 1403.402344 1781.195312 1781.136719 1403.460938 1781.136719 937.5 C 1781.136719 471.539062 1403.402344 93.804688 937.441406 93.804688 Z M 1428.039062 1428.097656 C 1396.667969 1459.472656 1345.804688 1459.472656 1314.433594 1428.097656 L 1150.074219 1263.738281 C 1075.261719 1316.191406 984.207031 1347.046875 885.933594 1347.191406 C 634.292969 1347.574219 427.4375 1144.53125 423.375 892.921875 C 419.15625 631.765625 631.707031 419.214844 892.863281 423.433594 C 1144.472656 427.496094 1347.511719 634.347656 1347.132812 885.992188 C 1346.984375 984.257812 1316.128906 1075.320312 1263.679688 1150.132812 L 1428.039062 1314.492188 C 1459.410156 1345.863281 1459.410156 1396.726562 1428.039062 1428.097656 Z M 1428.039062 1428.097656 " fill-opacity="1" fill-rule="nonzero"/></g></svg>